<?xml version="1.0" encoding="utf-8"?>
<!-- Generator: Adobe Illustrator 26.0.2, SVG Export Plug-In . SVG Version: 6.00 Build 0)  -->
<svg version="1.1" id="Layer_1" xmlns="http://www.w3.org/2000/svg" xmlns:xlink="http://www.w3.org/1999/xlink" x="0px" y="0px"
	 viewBox="0 0 25 25" style="enable-background:new 0 0 25 25;" xml:space="preserve">
<style type="text/css">
	.st0{fill:none;}
</style>
<g>
	<rect y="7.8" class="st0" width="24.5" height="1"/>
	<path d="M24.2,3.3C24,3.1,23.8,3,23.6,3h-4.9h0V1h-1v2H6.8V1h-1v2H1C0.7,3,0.5,3.1,0.3,3.3S0,3.7,0,3.9v3.9h24.5V3.9
		C24.5,3.7,24.4,3.4,24.2,3.3z"/>
	<path d="M0,23.6c0,0.2,0.1,0.5,0.3,0.7s0.4,0.3,0.7,0.3h22.6c0.2,0,0.5-0.1,0.7-0.3s0.3-0.4,0.3-0.7V8.9H0V23.6z M7,15.1l3.5-0.6
		l1.6-3c0-0.1,0.1-0.1,0.2-0.1c0.1,0,0.2,0,0.2,0.1l1.6,3.1l3.5,0.6c0.1,0,0.2,0.1,0.2,0.2c0,0.1,0,0.1-0.1,0.2l0,0L15,17.9l0.7,3.7
		v0c0,0.2-0.1,0.2-0.2,0.2c0,0-0.1,0-0.1,0l-3.1-1.6l-3.1,1.6c0,0,0,0,0,0c0,0,0,0-0.1,0c-0.2,0-0.2-0.1-0.2-0.2v0l0.7-3.7l-2.6-2.3
		c0,0-0.1-0.1-0.1-0.2C6.8,15.3,6.9,15.2,7,15.1z"/>
</g>
</svg>
